<?xml version="1.0" encoding="UTF-8" standalone="no"?>
<svg
   xmlns:dc="http://purl.org/dc/elements/1.1/"
   xmlns:cc="http://creativecommons.org/ns#"
   xmlns:rdf="http://www.w3.org/1999/02/22-rdf-syntax-ns#"
   xmlns:svg="http://www.w3.org/2000/svg"
   xmlns="http://www.w3.org/2000/svg"
   xmlns:sodipodi="http://sodipodi.sourceforge.net/DTD/sodipodi-0.dtd"
   xmlns:inkscape="http://www.inkscape.org/namespaces/inkscape"
   width="36.120899mm"
   height="7.3024769mm"
   viewBox="0 0 36.120899 7.3024769"
   version="1.1"
   id="svg8"
   inkscape:version="1.0.2 (e86c870879, 2021-01-15)"
   sodipodi:docname="logo.svg">
  <defs
     id="defs2">
    <rect
       x="-231.80603"
       y="-26.829319"
       width="230.95084"
       height="82.025703"
       id="rect835" />
  </defs>
  <sodipodi:namedview
     id="base"
     pagecolor="#ffffff"
     bordercolor="#666666"
     borderopacity="1.0"
     inkscape:pageopacity="0.0"
     inkscape:pageshadow="2"
     inkscape:zoom="1.6811701"
     inkscape:cx="252.4718"
     inkscape:cy="195.91833"
     inkscape:document-units="mm"
     inkscape:current-layer="layer1"
     inkscape:document-rotation="0"
     showgrid="false"
     inkscape:pagecheckerboard="true"
     fit-margin-top="0"
     fit-margin-left="0"
     fit-margin-right="0"
     fit-margin-bottom="0"
     inkscape:window-width="1918"
     inkscape:window-height="1058"
     inkscape:window-x="0"
     inkscape:window-y="20"
     inkscape:window-maximized="1" />
  <metadata
     id="metadata5">
    <rdf:RDF>
      <cc:Work
         rdf:about="">
        <dc:format>image/svg+xml</dc:format>
        <dc:type
           rdf:resource="http://purl.org/dc/dcmitype/StillImage" />
        <dc:title></dc:title>
      </cc:Work>
    </rdf:RDF>
  </metadata>
  <g
     inkscape:label="Layer 1"
     inkscape:groupmode="layer"
     id="layer1"
     transform="translate(230.15642,23.820371)">
    <g
       aria-label="Kalera"
       transform="translate(0.66608748,0.35099846)"
       id="text833"
       style="font-style:normal;font-variant:normal;font-weight:normal;font-stretch:normal;font-size:10.5833px;line-height:1.25;font-family:'Frozen Crystal Bold';-inkscape-font-specification:'Frozen Crystal Bold, ';letter-spacing:0px;word-spacing:0px;white-space:pre;shape-inside:url(#rect835);fill:#000000;fill-opacity:1;stroke:none">
      <path
         d="m -226.37741,-17.482724 -2.03199,-2.995074 -0.70908,0.539749 2.05316,3.058573 h 0.62441 z m 0.68792,-6.678062 h -0.61383 l -2.68816,3.058574 0.59266,0.539748 2.65641,-3.005657 z m -3.90524,2.868074 0.21166,-2.05316 -0.44449,-0.825497 c -0.17992,0.116416 -0.29634,0.370415 -0.32809,0.529165 l -0.27516,2.614075 0.0106,0.126999 c 0.0318,0.08467 0.20108,0.254 0.24342,0.254 h 0.0952 c 0.0847,-0.07408 0.3175,-0.306916 0.43391,-0.423332 z m -0.17992,1.354663 c -0.0847,-0.116417 -0.26458,-0.338666 -0.34925,-0.412749 h -0.0953 c -0.0317,0 -0.26458,0.169333 -0.28574,0.253999 l -0.0318,0.105833 -0.27517,2.592909 c 0,0.03175 -0.0106,0.04233 -0.0106,0.07408 0,0.158749 0.0847,0.359832 0.24341,0.455082 l 0.61383,-0.825498 0.20109,-2.010827 z m 0.20109,-0.973664 -0.4445,0.412749 0.40216,0.380999 h 0.46567 l 0.48683,-0.370416 -0.381,-0.423332 z"
         style="font-style:normal;font-variant:normal;font-weight:normal;font-stretch:normal;font-family:'Frozen Crystal Bold';-inkscape-font-specification:'Frozen Crystal Bold, '"
         id="path857" />
      <path
         d="m -223.56225,-24.160786 c -0.127,0 -0.30692,0.15875 -0.33867,0.285749 l 0.635,0.507999 h 2.73049 l 0.53975,-0.719665 v -0.07408 z m 2.99507,3.100907 c 0.0741,0.116416 0.26458,0.338665 0.35983,0.412749 h 0.0952 c 0.0317,0 0.254,-0.169333 0.27517,-0.254 l 0.0317,-0.105833 0.27517,-2.635241 c 0,-0.03175 0.0106,-0.04233 0.0106,-0.07408 0,-0.15875 -0.0847,-0.359833 -0.24342,-0.455082 l -0.60324,0.825497 -0.21167,2.05316 z m -2.99507,1.12183 c -0.0847,-0.116417 -0.26458,-0.338666 -0.34925,-0.412749 h -0.0953 c -0.0317,0 -0.26458,0.169333 -0.28575,0.253999 l -0.0318,0.105833 -0.27516,2.592909 c 0,0.03175 -0.0106,0.04233 -0.0106,0.07408 0,0.158749 0.0847,0.359832 0.24342,0.455082 l 0.61383,-0.825498 0.20108,-2.010827 z m 0.15875,-0.179916 h 2.60349 l 0.49741,-0.370416 -0.38099,-0.423332 h -2.67758 l -0.4445,0.412749 z m 2.88924,3.249073 c 0.20108,-0.116417 0.30691,-0.370416 0.33866,-0.529165 l 0.27517,-2.571742 -0.0106,-0.127 c -0.0317,-0.08467 -0.21167,-0.253999 -0.24342,-0.253999 h -0.0953 l -0.4445,0.423332 -0.0529,0.222249 -0.21167,2.010827 z m -3.35491,-6.752146 h -0.0741 l -0.27517,2.592909 0.0106,0.126999 c 0.0317,0.08467 0.20108,0.254 0.24341,0.254 h 0.0952 c 0.0847,-0.07408 0.3175,-0.306916 0.43392,-0.423332 l 0.0529,-0.22225 0.1905,-1.809744 z"
         style="font-style:normal;font-variant:normal;font-weight:normal;font-stretch:normal;font-family:'Frozen Crystal Bold';-inkscape-font-specification:'Frozen Crystal Bold, '"
         id="path859" />
      <path
         d="m -214.31246,-16.879476 c 0.13759,0 0.33867,-0.158749 0.37042,-0.285749 l -0.65617,-0.507998 h -2.73049 l -0.52916,0.719664 v 0.07408 z m -2.80457,-4.413236 0.21166,-2.05316 -0.44449,-0.825497 c -0.20109,0.116416 -0.29634,0.370415 -0.32809,0.529165 l -0.27516,2.614075 0.0106,0.126999 c 0.0318,0.08467 0.20108,0.254 0.24342,0.254 h 0.0847 l 0.4445,-0.423332 z m -0.17992,1.354663 c -0.0847,-0.116417 -0.27516,-0.338666 -0.35983,-0.412749 h -0.0847 c -0.0318,0 -0.26458,0.169333 -0.28575,0.253999 l -0.0318,0.105833 -0.27516,2.592909 c 0,0.03175 -0.0106,0.04233 -0.0106,0.07408 0,0.158749 0.0847,0.359832 0.24341,0.455082 l 0.60325,-0.825498 0.21167,-2.010827 z"
         style="font-style:normal;font-variant:normal;font-weight:normal;font-stretch:normal;font-family:'Frozen Crystal Bold';-inkscape-font-specification:'Frozen Crystal Bold, '"
         id="path861" />
      <path
         d="m -208.16356,-16.879476 c 0.13758,0 0.33866,-0.158749 0.37041,-0.285749 l -0.66674,-0.507998 h -2.73049 l -0.52917,0.719664 v 0.07408 z m -2.80458,-7.28131 v 0.07408 l 0.39159,0.719665 h 2.73049 l 0.74083,-0.507999 c 0,-0.126999 -0.16933,-0.285749 -0.30692,-0.285749 z m -0.0106,2.868074 0.21167,-2.05316 -0.4445,-0.825497 c -0.17992,0.116416 -0.29633,0.370415 -0.32808,0.529165 l -0.27517,2.614075 0.0106,0.126999 c 0.0317,0.08467 0.20109,0.254 0.24342,0.254 h 0.0952 c 0.0847,-0.07408 0.3175,-0.306916 0.43392,-0.423332 z m -0.17991,1.354663 c -0.0847,-0.116417 -0.26459,-0.338666 -0.34925,-0.412749 h -0.0952 c -0.0318,0 -0.26459,0.169333 -0.28575,0.253999 l -0.0317,0.105833 -0.27517,2.592909 c 0,0.03175 -0.0106,0.04233 -0.0106,0.07408 0,0.158749 0.0847,0.359832 0.24341,0.455082 l 0.61384,-0.825498 0.20108,-2.010827 z m 0.20108,-0.973664 -0.4445,0.412749 0.40216,0.380999 h 2.6035 l 0.49741,-0.370416 -0.381,-0.423332 z"
         style="font-style:normal;font-variant:normal;font-weight:normal;font-stretch:normal;font-family:'Frozen Crystal Bold';-inkscape-font-specification:'Frozen Crystal Bold, '"
         id="path863" />
      <path
         d="m -201.61251,-17.482724 -0.97366,-3.005657 -0.71966,0.539748 0.99483,3.069157 h 0.63499 z m -3.39723,-6.678062 c -0.127,0 -0.30692,0.15875 -0.33867,0.285749 l 0.635,0.507999 h 2.73049 l 0.53975,-0.719665 v -0.07408 z m 2.99507,3.100907 c 0.0741,0.116416 0.26458,0.338665 0.35983,0.412749 h 0.0953 c 0.0317,0 0.254,-0.169333 0.27517,-0.254 l 0.0318,-0.105833 0.27516,-2.635241 c 0,-0.03175 0.0106,-0.04233 0.0106,-0.07408 0,-0.15875 -0.0847,-0.359833 -0.24342,-0.455082 l -0.60325,0.825497 -0.21166,2.05316 z m -2.99507,1.12183 c -0.0847,-0.116417 -0.26459,-0.338666 -0.34925,-0.412749 h -0.0952 c -0.0317,0 -0.26459,0.169333 -0.28575,0.253999 l -0.0317,0.105833 -0.27517,2.592909 c 0,0.03175 -0.0106,0.04233 -0.0106,0.07408 0,0.158749 0.0847,0.359832 0.24341,0.455082 l 0.61384,-0.825498 0.20108,-2.010827 z m 0.17991,-1.354663 0.1905,-1.809744 -0.67733,-0.518582 h -0.0741 l -0.27517,2.592909 0.0106,0.126999 c 0.0317,0.08467 0.20109,0.254 0.24342,0.254 h 0.0952 c 0.0847,-0.07408 0.3175,-0.306916 0.43391,-0.423332 z m 0.0212,0.380999 -0.4445,0.412749 0.40216,0.380999 h 1.51342 l 0.48683,-0.370416 -0.381,-0.423332 z"
         style="font-style:normal;font-variant:normal;font-weight:normal;font-stretch:normal;font-family:'Frozen Crystal Bold';-inkscape-font-specification:'Frozen Crystal Bold, '"
         id="path865" />
      <path
         d="m -198.74444,-24.160786 c -0.127,0 -0.30692,0.15875 -0.33867,0.285749 l 0.635,0.507999 h 2.73049 l 0.53975,-0.719665 v -0.07408 z m 2.99507,3.100907 c 0.0741,0.116416 0.26458,0.338665 0.35983,0.412749 h 0.0953 c 0.0317,0 0.254,-0.169333 0.27517,-0.254 l 0.0317,-0.105833 0.27516,-2.635241 c 0,-0.03175 0.0106,-0.04233 0.0106,-0.07408 0,-0.15875 -0.0847,-0.359833 -0.24342,-0.455082 l -0.60325,0.825497 -0.21166,2.05316 z m -2.99507,1.12183 c -0.0847,-0.116417 -0.26458,-0.338666 -0.34925,-0.412749 h -0.0952 c -0.0317,0 -0.26458,0.169333 -0.28575,0.253999 l -0.0317,0.105833 -0.27517,2.592909 c 0,0.03175 -0.0106,0.04233 -0.0106,0.07408 0,0.158749 0.0847,0.359832 0.24342,0.455082 l 0.61383,-0.825498 0.20108,-2.010827 z m 0.15875,-0.179916 h 2.60349 l 0.49741,-0.370416 -0.38099,-0.423332 h -2.67758 l -0.4445,0.412749 z m 2.88924,3.249073 c 0.20108,-0.116417 0.30691,-0.370416 0.33866,-0.529165 l 0.27517,-2.571742 -0.0106,-0.127 c -0.0318,-0.08467 -0.21167,-0.253999 -0.24342,-0.253999 h -0.0952 l -0.4445,0.423332 -0.0529,0.222249 -0.21167,2.010827 z m -3.35491,-6.752146 h -0.0741 l -0.27517,2.592909 0.0106,0.126999 c 0.0317,0.08467 0.20108,0.254 0.24341,0.254 h 0.0953 c 0.0847,-0.07408 0.3175,-0.306916 0.43392,-0.423332 l 0.0529,-0.22225 0.1905,-1.809744 z"
         style="font-style:normal;font-variant:normal;font-weight:normal;font-stretch:normal;font-family:'Frozen Crystal Bold';-inkscape-font-specification:'Frozen Crystal Bold, '"
         id="path867" />
    </g>
  </g>
</svg>
